<svg xmlns="http://www.w3.org/2000/svg" viewBox="0 0 64 64">
  <rect width="64" height="64" rx="14" fill="#0b0709"/>
  <g fill="none" stroke="#ff7d92" stroke-width="4" stroke-linecap="round" stroke-linejoin="round">
    <circle cx="32" cy="32" r="21"/>
    <path d="M32 2v8M32 54v8M2 32h8M54 32h8M11 11l6 6M47 47l6 6M53 11l-6 6M17 47l-6 6M20 5l3 8M44 51l3 8M5 20l8 3M51 44l8 3M44 5l-3 8M23 51l-3 8M59 20l-8 3M13 41l-8 3"/>
    <path d="M23 44V20h11c6 0 10 4 10 9s-4 9-10 9H23M34 38l11 7"/>
  </g>
</svg>
